<?xml version="1.0" standalone="no"?>
<!DOCTYPE svg PUBLIC "-//W3C//DTD SVG 20010904//EN"
 "http://www.w3.org/TR/2001/REC-SVG-20010904/DTD/svg10.dtd">
<svg version="1.0" xmlns="http://www.w3.org/2000/svg"
 width="64.000000pt" height="64.000000pt" viewBox="0 0 64.000000 64.000000"
 preserveAspectRatio="xMidYMid meet">

<g transform="translate(0.000000,64.000000) scale(0.100000,-0.100000)"
fill="#D0CDD7" stroke="none">
<path d="M322 628 c-7 -7 -12 -22 -12 -33 0 -14 -14 -31 -41 -48 -48 -32 -65
-34 -72 -8 -3 14 -11 18 -26 14 -27 -7 -35 -20 -23 -36 5 -7 13 -22 17 -35 6
-21 4 -22 -22 -16 -15 4 -32 10 -38 14 -5 4 -28 7 -50 6 -36 -2 -40 -4 -43
-31 -4 -33 18 -55 55 -55 25 0 63 -36 63 -60 0 -22 27 -57 36 -47 4 4 2 13 -4
19 -7 7 -12 20 -12 29 0 28 -35 62 -76 74 -27 7 -40 17 -42 31 -2 17 3 20 33
20 19 0 35 -3 35 -7 0 -4 16 -9 35 -11 43 -5 61 11 46 41 -6 11 -11 28 -10 38
0 15 2 14 9 -4 11 -26 63 -32 77 -10 4 8 22 20 38 28 23 11 31 22 33 47 2 18
6 32 10 29 4 -2 22 -9 40 -16 17 -7 32 -19 32 -26 0 -13 62 -55 83 -55 7 -1
30 -9 52 -20 22 -11 46 -19 53 -20 6 0 12 -7 12 -16 0 -8 5 -12 10 -9 6 3 10
15 10 26 0 14 -7 19 -29 19 -16 0 -34 7 -41 15 -7 8 -19 15 -27 15 -26 0 -98
38 -111 59 -7 12 -18 21 -26 21 -7 0 -19 7 -26 15 -15 18 -32 19 -48 3z"/>
<path d="M584 396 c-59 -61 -80 -136 -34 -121 16 5 20 2 21 -17 2 -91 6 -111
23 -123 17 -13 17 -15 -7 -39 -29 -29 -39 -31 -70 -14 -55 30 -147 3 -147 -43
0 -23 -7 -24 -56 -3 -24 10 -51 14 -74 10 -49 -8 -85 26 -74 70 4 16 11 34 16
40 4 6 6 18 3 26 -4 10 1 17 15 21 20 5 21 7 5 36 -17 34 -30 41 -23 13 3 -10
-1 -24 -9 -31 -8 -7 -12 -20 -9 -28 4 -9 2 -21 -3 -27 -5 -6 -12 -29 -16 -52
-6 -38 -4 -43 25 -68 25 -21 39 -25 64 -21 18 4 51 0 79 -10 50 -17 77 -10 77
20 0 37 70 52 130 28 31 -13 47 -8 83 25 32 30 34 43 8 59 -15 10 -19 23 -18
71 0 68 -8 86 -34 79 -23 -6 -25 6 -4 23 8 7 15 18 15 24 0 7 11 22 25 34 24
21 33 43 18 41 -5 -1 -17 -11 -29 -23z"/>
</g>
</svg>
